<svg xmlns="http://www.w3.org/2000/svg" version="1.1" xmlns:xlink="http://www.w3.org/1999/xlink" xmlns:svgjs="http://svgjs.dev/svgjs" width="1740" height="800" preserveAspectRatio="none" viewBox="0 0 1740 800"><g mask="url(&quot;#SvgjsMask1039&quot;)" fill="none"><rect width="1740" height="800" x="0" y="0" fill="rgba(23, 38, 70, 1)"></rect><path d="M99 800L899 0L1631 0L831 800z" fill="url(&quot;#SvgjsLinearGradient1040&quot;)"></path><path d="M625.2 800L1425.2 0L1689.2 0L889.2 800z" fill="url(&quot;#SvgjsLinearGradient1040&quot;)"></path><path d="M1690 800L890 0L594.5 0L1394.5 800z" fill="url(&quot;#SvgjsLinearGradient1041&quot;)"></path><path d="M1071.8 800L271.79999999999995 0L10.799999999999955 0L810.8 800z" fill="url(&quot;#SvgjsLinearGradient1041&quot;)"></path><path d="M985.199582930177 800L1740 45.19958293017703L1740 800z" fill="url(&quot;#SvgjsLinearGradient1040&quot;)"></path><path d="M0 800L754.800417069823 800L 0 45.19958293017703z" fill="url(&quot;#SvgjsLinearGradient1041&quot;)"></path></g><defs><mask id="SvgjsMask1039"><rect width="1740" height="800" fill="#ffffff"></rect></mask><linearGradient x1="0%" y1="100%" x2="100%" y2="0%" id="SvgjsLinearGradient1040"><stop stop-color="rgba(15, 70, 185, 0.2)" offset="0"></stop><stop stop-opacity="0" stop-color="rgba(15, 70, 185, 0.2)" offset="0.66"></stop></linearGradient><linearGradient x1="100%" y1="100%" x2="0%" y2="0%" id="SvgjsLinearGradient1041"><stop stop-color="rgba(15, 70, 185, 0.2)" offset="0"></stop><stop stop-opacity="0" stop-color="rgba(15, 70, 185, 0.2)" offset="0.66"></stop></linearGradient></defs></svg>